HIERARCHY
ROOT hip
{
  OFFSET 0 0 0
  CHANNELS 6 Xposition Yposition Zposition Zrotation Yrotation Xrotation
  JOINT abdomen
  {
    OFFSET 0 20.6881 -0.73152
    CHANNELS 3 Zrotation Xrotation Yrotation
    JOINT chest
    {
      OFFSET 0 11.7043 -0.48768
      CHANNELS 3 Zrotation Xrotation Yrotation
      JOINT neck
      {
        OFFSET 0 22.1894 -2.19456
        CHANNELS 3 Zrotation Xrotation Yrotation
        JOINT head
        {
          OFFSET -0.24384 7.07133 1.2192
          CHANNELS 3 Zrotation Xrotation Yrotation
          JOINT leftEye
          {
            OFFSET 4.14528 8.04674 8.04672
            CHANNELS 3 Zrotation Xrotation Yrotation
            End Site
            {
              OFFSET 1 0 0
            }
          }
          JOINT rightEye
          {
            OFFSET -3.6576 8.04674 8.04672
            CHANNELS 3 Zrotation Xrotation Yrotation
            End Site
            {
              OFFSET 1 0 0
            }
          }
        }
      }
      JOINT rCollar
      {
        OFFSET -2.68224 19.2634 -4.8768
        CHANNELS 3 Zrotation Xrotation Yrotation
        JOINT rShldr
        {
          OFFSET -8.77824 -1.95073 1.46304
          CHANNELS 3 Zrotation Xrotation Yrotation
          JOINT rForeArm
          {
            OFFSET -28.1742 -1.7115 0.48768
            CHANNELS 3 Zrotation Xrotation Yrotation
            JOINT rHand
            {
              OFFSET -22.5879 0.773209 7.07136
              CHANNELS 3 Zrotation Xrotation Yrotation
              JOINT rThumb1
              {
                OFFSET -1.2192 -0.487915 3.41376
                CHANNELS 3 Zrotation Xrotation Yrotation
                JOINT rThumb2
                {
                  OFFSET -3.37035 -0.52449 3.41376
                  CHANNELS 3 Zrotation Xrotation Yrotation
                  End Site
                  {
                    OFFSET -1.78271 -1.18214 1.43049
                  }
                }
              }
              JOINT rIndex1
              {
                OFFSET -7.75947 0.938293 5.60832
                CHANNELS 3 Zrotation Xrotation Yrotation
                JOINT rIndex2
                {
                  OFFSET -2.54057 -0.884171 1.56538
                  CHANNELS 3 Zrotation Xrotation Yrotation
                  End Site
                  {
                    OFFSET -1.62519 -0.234802 1.16502
                  }
                }
              }
              JOINT rMid1
              {
                OFFSET -8.24714 1.18213 3.41376
                CHANNELS 3 Zrotation Xrotation Yrotation
                JOINT rMid2
                {
                  OFFSET -3.10165 -0.590103 1.0647
                  CHANNELS 3 Zrotation Xrotation Yrotation
                  End Site
                  {
                    OFFSET -2.48547 -0.328903 0.83742
                  }
                }
              }
              JOINT rRing1
              {
                OFFSET -8.82822 0.546677 1.51678
                CHANNELS 3 Zrotation Xrotation Yrotation
                JOINT rRing2
                {
                  OFFSET -2.60934 -0.819778 -0.0198488
                  CHANNELS 3 Zrotation Xrotation Yrotation
                  End Site
                  {
                    OFFSET -2.33842 -0.294052 0.168128
                  }
                }
              }
              JOINT rPinky1
              {
                OFFSET -8.27202 -0.0477905 -0.4584
                CHANNELS 3 Zrotation Xrotation Yrotation
                JOINT rPinky2
                {
                  OFFSET -1.82734 -0.647385 -0.700984
                  CHANNELS 3 Zrotation Xrotation Yrotation
                  End Site
                  {
                    OFFSET -1.69225 -0.51767 -0.607171
                  }
                }
              }
            }
          }
        }
      }
      JOINT lCollar
      {
        OFFSET 2.68224 19.2634 -4.8768
        CHANNELS 3 Zrotation Xrotation Yrotation
        JOINT lShldr
        {
          OFFSET 8.77824 -1.95073 1.46304
          CHANNELS 3 Zrotation Xrotation Yrotation
          JOINT lForeArm
          {
            OFFSET 28.1742 -1.7115 0.48768
            CHANNELS 3 Zrotation Xrotation Yrotation
            JOINT lHand
            {
              OFFSET 22.5879 0.773209 7.07136
              CHANNELS 3 Zrotation Xrotation Yrotation
              JOINT lThumb1
              {
                OFFSET 1.2192 -0.487915 3.41376
                CHANNELS 3 Zrotation Xrotation Yrotation
                JOINT lThumb2
                {
                  OFFSET 3.37035 -0.52449 3.41376
                  CHANNELS 3 Zrotation Xrotation Yrotation
                  End Site
                  {
                    OFFSET 1.78271 -1.18214 1.43049
                  }
                }
              }
              JOINT lIndex1
              {
                OFFSET 7.75947 0.938293 5.60832
                CHANNELS 3 Zrotation Xrotation Yrotation
                JOINT lIndex2
                {
                  OFFSET 2.54057 -0.884171 1.56538
                  CHANNELS 3 Zrotation Xrotation Yrotation
                  End Site
                  {
                    OFFSET 1.62519 -0.234802 1.16502
                  }
                }
              }
              JOINT lMid1
              {
                OFFSET 8.24714 1.18213 3.41376
                CHANNELS 3 Zrotation Xrotation Yrotation
                JOINT lMid2
                {
                  OFFSET 3.10165 -0.590103 1.0647
                  CHANNELS 3 Zrotation Xrotation Yrotation
                  End Site
                  {
                    OFFSET 2.48547 -0.328903 0.83742
                  }
                }
              }
              JOINT lRing1
              {
                OFFSET 8.82822 0.546677 1.51678
                CHANNELS 3 Zrotation Xrotation Yrotation
                JOINT lRing2
                {
                  OFFSET 2.60934 -0.819778 -0.0198488
                  CHANNELS 3 Zrotation Xrotation Yrotation
                  End Site
                  {
                    OFFSET 2.33842 -0.294052 0.168128
                  }
                }
              }
              JOINT lPinky1
              {
                OFFSET 8.27202 -0.0477905 -0.4584
                CHANNELS 3 Zrotation Xrotation Yrotation
                JOINT lPinky2
                {
                  OFFSET 1.82734 -0.647385 -0.700984
                  CHANNELS 3 Zrotation Xrotation Yrotation
                  End Site
                  {
                    OFFSET 1.69225 -0.51767 -0.607171
                  }
                }
              }
            }
          }
        }
      }
    }
  }
  JOINT rButtock
  {
    OFFSET -8.77824 4.35084 1.2192
    CHANNELS 3 Zrotation Xrotation Yrotation
    JOINT rThigh
    {
      OFFSET 0 -1.70687 -2.19456
      CHANNELS 3 Zrotation Xrotation Yrotation
      JOINT rShin
      {
        OFFSET 0 -36.8199 0.73152
        CHANNELS 3 Zrotation Xrotation Yrotation
        JOINT rFoot
        {
          OFFSET 0.73152 -45.1104 -5.12064
          CHANNELS 3 Zrotation Xrotation Yrotation
          End Site
          {
            OFFSET -1.1221 -3.69964 12.103
          }
        }
      }
    }
  }
  JOINT lButtock
  {
    OFFSET 8.77824 4.35084 1.2192
    CHANNELS 3 Zrotation Xrotation Yrotation
    JOINT lThigh
    {
      OFFSET 0 -1.70687 -2.19456
      CHANNELS 3 Zrotation Xrotation Yrotation
      JOINT lShin
      {
        OFFSET 0 -36.8199 0.73152
        CHANNELS 3 Zrotation Xrotation Yrotation
        JOINT lFoot
        {
          OFFSET -0.73152 -45.1104 -5.12064
          CHANNELS 3 Zrotation Xrotation Yrotation
          End Site
          {
            OFFSET 1.1221 -3.69964 12.103
          }
        }
      }
    }
  }
}
MOTION
Frames:	7
Frame Time:	0.00833333
-82.9207 80.2731 -52.7341 0.0 0.0 0.0 2.42165 -0.000250632 0.0655291 0.667697 0.0102413 0.115564 -1.7893e-15 0.0 -2.48481e-16 -5.18704e-15 -6.36111e-15 -6.72451e-16 -0.0 0.0 0.0 -0.0 0.0 0.0 -6.98129e-16 -1.80149e-16 4.96962e-17 -1.66633e-14 -3.96327e-15 -1.39149e-15 -3.16664e-13 -4.01545e-14 -1.59028e-14 -3.35857e-12 -7.48076e-13 -4.38917e-13 -7.95581e-12 -1.70575e-12 -9.63708e-13 -1.37372e-11 -2.94837e-12 -1.65945e-12 -7.95377e-12 -1.70517e-12 -9.60528e-13 7.73091 5.47488 0.417314 -7.95447e-12 -1.70567e-12 -9.60528e-13 2.90554 0.965183 0.102902 -7.94743e-12 -1.70557e-12 -9.59732e-13 10.2786 0.731801 0.0259123 -7.95974e-12 -1.70239e-12 -9.54166e-13 2.22167 -0.733487 -0.20892 -8.92201e-16 -1.80537e-16 -3.47873e-16 -1.91293e-14 -3.99433e-15 -3.18055e-15 -2.77404e-13 -2.18266e-13 -5.725e-14 -3.38418e-12 -5.6917e-13 -3.81667e-13 -7.93236e-12 -1.70515e-12 -9.63708e-13 -1.36851e-11 -2.94201e-12 -1.65389e-12 -7.93509e-12 -1.70557e-12 -9.54166e-13 -7.73091 5.47488 -0.417314 -7.93081e-12 -1.70557e-12 -9.66889e-13 -2.90554 0.965183 -0.102902 -7.93775e-12 -1.70478e-12 -9.61323e-13 -10.2786 0.731801 -0.0259123 -7.92614e-12 -1.70279e-12 -9.7325e-13 -2.22167 -0.733487 0.20892 -2.03217e-16 0.0 -3.88251e-19 2.31823 -8.13355 -0.241849 0.00614543 9.15851 0.156815 -0.52043 -1.03428 0.0376475 2.03217e-16 0.0 3.88251e-19 1.36408 -1.92971 -0.00552024 0.00877452 -2.07863 0.0721828 0.474135 3.99892 -0.134723
-88.127 78.36 -55.8012 -38.9132 49.6478 10.9672 -1.39134 6.90859 0.827845 1.95947 -1.70851 0.154018 -2.34424 -1.45706 0.484554 4.34492 -0.249702 1.90292 -0.0 0.0 0.0 -0.0 0.0 0.0 -4.17456e-13 7.9511e-13 1.86126e-13 -1.60945 -11.4085 -1.19151 -6.54819 -3.65363 9.3843 0.00800934 2.00539 0.281234 2.92732e-10 3.27162e-09 6.93144e-10 5.12021e-10 5.65205e-09 1.20047e-09 2.92735e-10 3.27161e-09 6.93139e-10 7.73091 5.47488 0.417314 2.92732e-10 3.27161e-09 6.93148e-10 2.90554 0.965183 0.102902 2.92736e-10 3.27162e-09 6.93147e-10 10.2786 0.731801 0.0259123 2.92727e-10 3.27162e-09 6.93154e-10 2.22167 -0.733487 -0.20892 -4.17679e-13 7.95103e-13 1.85754e-13 1.63328 -7.604 -6.3176 4.65375 -2.20632 -7.17007 -0.393057 -13.9985 1.76255 5.45008e-10 2.31141e-10 1.24247e-09 8.95728e-10 4.33819e-10 2.15796e-09 5.45004e-10 2.31141e-10 1.24248e-09 -7.73091 5.47488 -0.417314 5.45008e-10 2.3114e-10 1.24247e-09 -2.90554 0.965183 -0.102902 5.45001e-10 2.31142e-10 1.24248e-09 -10.2786 0.731801 -0.0259123 5.45012e-10 2.31144e-10 1.24247e-09 -2.22167 -0.733487 0.20892 -2.03217e-16 0.0 -3.88251e-19 2.95454 -12.25 0.785808 0.188424 14.1748 0.556999 -0.389199 -2.55771 8.46825 2.03217e-16 0.0 3.88251e-19 6.98258 -22.2423 6.11145 0.0168191 21.0618 -0.232549 0.458121 7.84276 -1.92745
-88.536 77.2164 -54.6782 -34.6549 50.1439 10.1743 -5.68084 14.2343 1.68837 3.3066 -3.52556 0.195746 -4.81048 -3.02885 1.01051 8.89069 -0.391812 3.92534 -0.0 0.0 0.0 -0.0 0.0 0.0 -8.84789e-13 1.66773e-12 4.07189e-13 -4.00801 -23.5282 -2.55413 -12.1732 -7.17715 19.408 -0.00516369 4.15782 0.58428 6.83951e-10 6.98375e-09 1.51035e-09 1.19507e-09 1.20644e-08 2.61549e-09 6.83957e-10 6.98374e-09 1.51034e-09 7.73091 5.47488 0.417314 6.83951e-10 6.98374e-09 1.51036e-09 2.90554 0.965183 0.102902 6.83952e-10 6.98375e-09 1.51035e-09 10.2786 0.731801 0.0259123 6.83945e-10 6.98375e-09 1.51036e-09 2.22167 -0.733487 -0.20892 -8.85043e-13 1.66772e-12 4.06844e-13 1.39427 -15.3461 -13.4178 8.9373 -4.391 -14.7259 0.248953 -28.8225 4.02394 1.1983e-09 4.86969e-10 2.61093e-09 1.97378e-09 9.13705e-10 4.53616e-09 1.1983e-09 4.86968e-10 2.61095e-09 -7.73091 5.47488 -0.417314 1.1983e-09 4.86967e-10 2.61093e-09 -2.90554 0.965183 -0.102902 1.19829e-09 4.86971e-10 2.61094e-09 -10.2786 0.731801 -0.0259123 1.1983e-09 4.86971e-10 2.61093e-09 -2.22167 -0.733487 0.20892 -2.03217e-16 0.0 -3.88251e-19 3.80819 -16.5016 1.98672 0.300889 19.4642 1.0071 0.186287 -3.90289 17.5259 2.03217e-16 0.0 3.88251e-19 19.2299 -42.8768 16.0743 0.393516 45.7326 -0.75269 0.707428 11.9335 -3.85431
-89.6911 76.4296 -54.1794 -29.8316 50.8824 12.4224 -9.6017 20.7104 2.49582 4.54996 -5.146 0.231656 -6.9586 -4.36994 1.45743 13.0844 -0.745803 5.70919 -0.0 0.0 0.0 -0.0 0.0 0.0 -1.25097e-12 2.38569e-12 5.58278e-13 -6.50253 -34.1598 -4.23567 -16.1715 -9.78635 28.5478 -0.0353084 6.01558 0.847856 8.94107e-10 9.81826e-09 2.08136e-09 1.56354e-09 1.69621e-08 3.60472e-09 8.94113e-10 9.81824e-09 2.08134e-09 7.73091 5.47488 0.417314 8.94106e-10 9.81825e-09 2.08137e-09 2.90554 0.965183 0.102902 8.94104e-10 9.81827e-09 2.08136e-09 10.2786 0.731801 0.0259123 8.941e-10 9.81827e-09 2.08137e-09 2.22167 -0.733487 -0.20892 -1.25125e-12 2.38567e-12 5.57958e-13 -0.347047 -21.6634 -20.2733 12.3398 -6.20525 -21.6272 2.14722 -41.8082 6.89055 1.65089e-09 6.96834e-10 3.72934e-09 2.71455e-09 1.30734e-09 6.47717e-09 1.65088e-09 6.96834e-10 3.72936e-09 -7.73091 5.47488 -0.417314 1.65089e-09 6.96832e-10 3.72934e-09 -2.90554 0.965183 -0.102902 1.65088e-09 6.96837e-10 3.72935e-09 -10.2786 0.731801 -0.0259123 1.65089e-09 6.96837e-10 3.72935e-09 -2.22167 -0.733487 0.20892 -2.03217e-16 0.0 -3.88251e-19 4.69757 -20.4609 2.97011 0.32313 24.2026 1.4368 1.17076 -5.14164 25.4135 2.03217e-16 0.0 3.88251e-19 41.2976 -58.6247 34.1117 1.69194 67.3299 -2.06385 1.17143 15.4713 -5.66539
-90.7281 76.2985 -53.6268 -27.2694 51.5076 13.4468 -12.1531 25.0788 3.02598 5.52873 -6.27493 0.252381 -8.36925 -5.13564 1.70264 16.4003 -1.62917 6.89771 -0.0 0.0 0.0 -0.0 0.0 0.0 -1.36428e-12 2.717e-12 5.34433e-13 -8.1128 -41.1158 -6.16064 -18.4803 -11.2125 35.1067 -0.0628878 7.13729 1.00835 6.516e-10 1.04587e-08 2.03687e-09 1.14558e-09 1.80732e-08 3.52948e-09 6.51607e-10 1.04587e-08 2.03684e-09 7.73091 5.47488 0.417314 6.51599e-10 1.04587e-08 2.03687e-09 2.90554 0.965183 0.102902 6.51596e-10 1.04587e-08 2.03687e-09 10.2786 0.731801 0.0259123 6.51593e-10 1.04587e-08 2.03688e-09 2.22167 -0.733487 -0.20892 -1.36458e-12 2.71698e-12 5.34134e-13 -1.96564 -25.5619 -25.2176 14.61 -7.45728 -26.7896 4.60439 -50.3742 9.77207 1.60171e-09 7.91796e-10 4.22263e-09 2.61212e-09 1.48535e-09 7.32523e-09 1.6017e-09 7.91796e-10 4.22264e-09 -7.73091 5.47488 -0.417314 1.60171e-09 7.91794e-10 4.22263e-09 -2.90554 0.965183 -0.102902 1.6017e-09 7.91799e-10 4.22264e-09 -10.2786 0.731801 -0.0259123 1.60171e-09 7.91799e-10 4.22263e-09 -2.22167 -0.733487 0.20892 -2.03217e-16 0.0 -3.88251e-19 5.29522 -23.7147 3.29035 0.288794 27.568 1.74862 2.4276 -6.49326 30.3283 2.03217e-16 0.0 3.88251e-19 68.254 -65.6463 57.2414 6.04902 81.2355 -6.37335 1.63274 17.6792 -7.05035
-91.8209 76.8272 -53.2052 -26.3192 52.0911 14.5515 -12.571 26.4059 3.0331 6.16041 -6.74418 0.246083 -8.78211 -5.02165 1.67991 18.5492 -3.43238 7.31712 -0.0 0.0 0.0 -0.0 0.0 0.0 -1.06124e-12 2.48688e-12 1.82187e-13 -7.78186 -42.9269 -7.98344 -19.3927 -11.7797 37.9776 -0.0651493 7.09535 1.00259 -5.53293e-10 8.15157e-09 7.88389e-10 -9.43397e-10 1.41061e-08 1.37315e-09 -5.53287e-10 8.15156e-09 7.88364e-10 7.73091 5.47488 0.417314 -5.53295e-10 8.15156e-09 7.88395e-10 2.90554 0.965183 0.102902 -5.53296e-10 8.15157e-09 7.8839e-10 10.2786 0.731801 0.0259123 -5.53299e-10 8.15158e-09 7.88399e-10 2.22167 -0.733487 -0.20892 -1.06155e-12 2.48687e-12 1.81906e-13 -1.63062 -26.952 -26.5593 15.7906 -8.22032 -29.5644 5.62513 -52.709 10.8437 6.01779e-10 6.97943e-10 3.86759e-09 8.99723e-10 1.31057e-09 6.68116e-09 6.01776e-10 6.97943e-10 3.8676e-09 -7.73091 5.47488 -0.417314 6.01779e-10 6.97941e-10 3.86759e-09 -2.90554 0.965183 -0.102902 6.0177e-10 6.97946e-10 3.8676e-09 -10.2786 0.731801 -0.0259123 6.01779e-10 6.97946e-10 3.8676e-09 -2.22167 -0.733487 0.20892 -2.03217e-16 0.0 -3.88251e-19 5.30969 -25.856 2.65953 0.270874 28.7545 1.85197 3.83836 -8.38886 31.3634 2.03217e-16 0.0 3.88251e-19 79.8309 -67.3008 66.8685 9.69105 84.1874 -9.9897 1.84964 17.9946 -7.83079
-93.0471 78.2016 -52.8509 -26.3893 53.1189 15.6637 -11.4285 25.5667 2.64529 6.54253 -6.74087 0.220646 -8.48065 -4.28283 1.46514 19.8339 -5.88785 7.19314 -0.0 0.0 0.0 -0.0 0.0 0.0 -4.6379e-13 1.8567e-12 -4.00654e-13 -5.62866 -41.088 -9.40971 -19.501 -11.955 38.1747 -0.0492469 6.22862 0.878935 -2.42995e-09 3.73305e-09 -1.30378e-09 -4.19881e-09 6.50101e-09 -2.24153e-09 -2.42995e-09 3.73305e-09 -1.3038e-09 7.73091 5.47488 0.417314 -2.42996e-09 3.73305e-09 -1.30378e-09 2.90554 0.965183 0.102902 -2.42995e-09 3.73306e-09 -1.30378e-09 10.2786 0.731801 0.0259123 -2.42996e-09 3.73306e-09 -1.30377e-09 2.22167 -0.733487 -0.20892 -4.64099e-13 1.85672e-12 -4.00921e-13 0.48349 -26.7515 -25.1253 16.2987 -8.71473 -30.6134 4.95287 -50.6696 10.0317 -1.06543e-09 4.70552e-10 2.90534e-09 -1.94219e-09 8.86222e-10 4.96946e-09 -1.06544e-09 4.70553e-10 2.90535e-09 -7.73091 5.47488 -0.417314 -1.06543e-09 4.70551e-10 2.90534e-09 -2.90554 0.965183 -0.102902 -1.06544e-09 4.70556e-10 2.90534e-09 -10.2786 0.731801 -0.0259123 -1.06543e-09 4.70556e-10 2.90534e-09 -2.22167 -0.733487 0.20892 -2.03217e-16 0.0 -3.88251e-19 4.83052 -27.2023 1.30985 0.284789 28.3977 1.79421 5.11354 -10.8286 29.6235 2.03217e-16 0.0 3.88251e-19 74.519 -67.8948 61.2835 4.8496 79.402 -5.15448 1.82438 16.9728 -8.15271
